<?xml version="1.0" encoding="UTF-8" standalone="no"?>
<!-- Created with Inkscape (http://www.inkscape.org/) -->

<svg
   width="5.0689163mm"
   height="4.8261909mm"
   viewBox="0 0 5.0689163 4.8261909"
   version="1.1"
   id="svg15869"
   inkscape:version="1.2.2 (b0a8486, 2022-12-01)"
   sodipodi:docname="shroom.svg"
   xmlns:inkscape="http://www.inkscape.org/namespaces/inkscape"
   xmlns:sodipodi="http://sodipodi.sourceforge.net/DTD/sodipodi-0.dtd"
   xmlns="http://www.w3.org/2000/svg"
   xmlns:svg="http://www.w3.org/2000/svg">
  <sodipodi:namedview
     id="namedview15871"
     pagecolor="#ffffff"
     bordercolor="#000000"
     borderopacity="0.25"
     inkscape:showpageshadow="2"
     inkscape:pageopacity="0.0"
     inkscape:pagecheckerboard="0"
     inkscape:deskcolor="#d1d1d1"
     inkscape:document-units="mm"
     showgrid="false"
     inkscape:zoom="0.89352553"
     inkscape:cx="73.864705"
     inkscape:cy="194.73422"
     inkscape:window-width="2560"
     inkscape:window-height="1372"
     inkscape:window-x="1920"
     inkscape:window-y="0"
     inkscape:window-maximized="1"
     inkscape:current-layer="layer1" />
  <defs
     id="defs15866" />
  <g
     inkscape:label="Layer 1"
     inkscape:groupmode="layer"
     id="layer1"
     transform="translate(-85.706826,-96.784312)">
    <path
       id="path5290"
       style="fill:#e6e6e6;stroke:#999999;stroke-width:0.0318323;stroke-linecap:round"
       d="m 88.987866,96.883756 c -0.462505,-0.133151 -1.011634,-0.105677 -2.085411,0.0725 0,0 -1.181217,0.322202 -1.179711,0.703982 0.0024,0.597414 0.648287,0.253162 0.648287,0.253162 0.460542,-0.20233 1.278242,0.119597 1.258766,0.226861 0,0 0.01479,0.282932 -0.609084,0.894075 -0.837279,0.820177 -0.770266,1.866834 -0.659241,2.033964 0.464833,0.69978 1.106159,0.45972 1.413462,0.50038 1.081,0.14303 0.972939,-0.35376 0.972939,-0.35376 0,0 0.06404,-0.35555 -0.164584,-0.90857 -0.228618,-0.553017 -0.240445,-1.796609 -0.0021,-1.812177 0.238443,-0.01556 0.828985,0.667658 1.408248,0.85621 0.197564,0.06431 0.448299,0.200819 0.704493,-0.277754 0.233225,-0.719169 -0.197948,-1.332968 -0.578133,-1.582266 -0.461058,-0.302327 -0.768305,-0.503042 -1.128028,-0.606611 z m -0.249558,0.0878 c 0.0027,7.93e-4 0.0055,0.0019 0.0081,0.003 0.01466,0.0065 0.02666,0.01791 0.03611,0.03087 0.0094,0.01294 0.01643,0.02754 0.02283,0.04224 0.0064,0.01471 0.0122,0.02962 0.01966,0.0438 0.0074,0.01418 0.01664,0.02784 0.02872,0.03837 0.01622,0.01413 0.03699,0.02212 0.05821,0.02561 0.02117,0.0036 0.04289,0.0027 0.06428,5.29e-4 0.04278,-0.0044 0.08637,-0.0141 0.128307,-0.0046 0.04248,0.0097 0.07957,0.03934 0.09992,0.07788 0.02035,0.03854 0.02416,0.08508 0.01207,0.126961 -0.01201,0.04189 -0.03949,0.07883 -0.07499,0.1041 -0.03551,0.02527 -0.07873,0.0391 -0.122277,0.04095 -0.04354,0.0019 -0.08728,-0.008 -0.126746,-0.02646 -0.03947,-0.01849 -0.07476,-0.04553 -0.104389,-0.07749 -0.05926,-0.06392 -0.09538,-0.146238 -0.118068,-0.230399 -0.01191,-0.04418 -0.02043,-0.08933 -0.02543,-0.134813 0.0026,-0.02252 0.01654,-0.04347 0.03627,-0.05464 0.01728,-0.0098 0.03856,-0.01177 0.05748,-0.0059 z m 0.80245,0.359931 c 0.0083,0.0021 0.01606,0.0058 0.02307,0.01069 0.01458,0.01019 0.02484,0.02537 0.03569,0.03947 0.02691,0.035 0.06022,0.0666 0.07553,0.108011 0.01151,0.03118 0.0114,0.06714 -0.0034,0.09689 -0.0056,0.01146 -0.01352,0.0218 -0.02289,0.03055 -0.02352,0.02186 -0.05681,0.03229 -0.08878,0.02946 -0.03198,-0.0028 -0.06226,-0.01842 -0.08452,-0.04154 -0.02225,-0.02313 -0.0366,-0.0535 -0.04208,-0.08514 -0.0055,-0.03163 -0.0024,-0.06456 0.0072,-0.09522 0.0066,-0.02109 0.01611,-0.04116 0.0284,-0.05954 0.0084,-0.01262 0.01871,-0.02487 0.03246,-0.03131 0.0096,-0.0045 0.02053,-0.0058 0.03095,-0.0039 0.0029,2.38e-4 0.0057,0.0011 0.0084,0.0019 z m -1.28891,-0.30017 c 0.02713,0.0083 0.0523,0.02331 0.07197,0.04376 0.06653,0.07495 0.121637,0.160004 0.163044,0.251267 0.02077,0.04577 0.03839,0.09427 0.03906,0.144521 2.64e-4,0.02514 -0.0037,0.05046 -0.01323,0.07371 -0.0096,0.02326 -0.02479,0.04426 -0.04484,0.05941 -0.02898,0.02188 -0.06649,0.03036 -0.102806,0.02998 -0.08045,-7.94e-4 -0.155377,-0.04171 -0.218337,-0.09173 -0.06293,-0.05014 -0.117247,-0.110373 -0.180364,-0.160276 -0.03387,-0.02677 -0.07049,-0.05084 -0.09912,-0.08315 -0.02437,-0.02749 -0.04254,-0.06086 -0.0507,-0.09669 -0.0081,-0.03583 -0.0061,-0.07405 0.0072,-0.108292 0.01334,-0.03425 0.0382,-0.06419 0.07027,-0.08215 0.03207,-0.01794 0.07117,-0.02349 0.106564,-0.0136 0.02985,0.0083 0.05633,0.02694 0.08679,0.03265 0.01881,0.0035 0.0383,0.0021 0.05728,-5.3e-4 0.01897,-0.0026 0.03781,-0.0062 0.05695,-0.0063 0.01701,-1.69e-4 0.034,0.0024 0.05026,0.0074 z m 1.825398,0.544203 c 0.01246,0.0029 0.02408,0.0095 0.03344,0.0182 0.01251,0.01164 0.02103,0.02726 0.02514,0.04385 0.0041,0.01659 0.0038,0.03405 2.64e-4,0.05078 -0.0035,0.01675 -0.01005,0.03276 -0.01881,0.04748 -0.0172,0.02953 -0.04162,0.05405 -0.0658,0.0782 -0.02418,0.02416 -0.04862,0.04871 -0.06595,0.07817 -0.02721,0.0462 -0.03496,0.101383 -0.05895,0.149333 -0.02339,0.04679 -0.06236,0.08572 -0.109241,0.108932 -0.04688,0.02323 -0.101404,0.03071 -0.152808,0.02098 -0.0514,-0.0097 -0.0995,-0.0367 -0.134651,-0.07544 -0.03514,-0.03875 -0.05723,-0.08914 -0.06191,-0.141253 l 0.147995,-0.190341 c 0.05083,0.03218 0.114213,0.04366 0.173135,0.03156 0.05893,-0.01209 0.112729,-0.04777 0.146762,-0.09737 0.01783,-0.02596 0.03029,-0.05543 0.04946,-0.08042 0.0096,-0.01249 0.02098,-0.02371 0.03441,-0.03191 0.01344,-0.0082 0.02905,-0.01334 0.04478,-0.01259 0.0043,7.7e-5 0.0086,0.0011 0.01275,0.0019 z m -2.571848,-0.465846 c 0.01159,0.0034 0.02262,0.0084 0.03299,0.01453 0.02069,0.01249 0.0382,0.03037 0.0502,0.05135 0.01201,0.02098 0.01842,0.04503 0.01868,0.0692 1.24e-4,0.01238 -0.0016,0.0254 -0.0086,0.03557 -0.0066,0.0096 -0.01754,0.01572 -0.02899,0.01805 -0.01146,0.0024 -0.02339,0.0011 -0.03467,-0.0019 -0.02257,-0.0061 -0.04268,-0.01918 -0.06503,-0.02604 -0.01442,-0.0045 -0.02946,-0.0064 -0.04434,-0.0091 -0.01487,-0.0027 -0.02992,-0.0065 -0.04262,-0.01474 -0.01122,-0.0072 -0.02027,-0.01775 -0.0259,-0.02985 -0.0056,-0.01209 -0.0077,-0.02569 -0.006,-0.03893 0.0016,-0.01323 0.0074,-0.02593 0.01588,-0.03617 0.0085,-0.01027 0.02,-0.01812 0.03271,-0.0222 0.02148,-0.01106 0.04581,-0.01638 0.06996,-0.01556 0.01209,5.29e-4 0.02413,0.0024 0.03572,0.0057 z m 1.675302,0.541702 c 0.04116,0.0114 0.07929,0.03342 0.109683,0.06344 0.03472,0.03433 0.05916,0.07902 0.06926,0.126797 0.0078,0.03694 0.007,0.07562 -0.0029,0.112045 -0.01844,0.06748 -0.06941,0.124849 -0.133525,0.152818 -0.06412,0.02797 -0.139967,0.02666 -0.203904,-0.0019 -0.01931,-0.0086 -0.03805,-0.0196 -0.05891,-0.02307 -0.01042,-0.0019 -0.02122,-0.0016 -0.03121,0.0019 -0.01,0.0034 -0.01908,0.01024 -0.02408,0.01955 -0.0052,0.0098 -0.0058,0.02133 -0.005,0.03238 7.93e-4,0.01103 0.003,0.02207 0.0026,0.03315 -7.93e-4,0.01995 -0.0099,0.03921 -0.02394,0.05333 -0.01413,0.0141 -0.03297,0.02302 -0.05267,0.02612 -0.01971,0.0031 -0.04023,5.29e-4 -0.05894,-0.0065 -0.01868,-0.007 -0.03564,-0.01799 -0.0503,-0.03152 -0.02932,-0.02706 -0.04899,-0.06306 -0.06472,-0.09972 -0.01574,-0.03667 -0.02808,-0.07475 -0.04598,-0.110414 -0.01156,-0.02302 -0.0254,-0.04488 -0.03714,-0.0678 -0.01175,-0.02291 -0.02146,-0.04725 -0.02429,-0.07284 -0.0034,-0.03044 0.0033,-0.06163 0.01722,-0.08892 0.01392,-0.02729 0.03472,-0.05077 0.05903,-0.0694 0.04862,-0.03727 0.10958,-0.05497 0.169892,-0.0657 0.123055,-0.02188 0.250563,-0.01796 0.372006,0.01159 l -3.9e-5,1.4e-4 c 0.006,0.0011 0.01199,0.0027 0.01786,0.0043 z m 1.094988,0.455988 c 0.04094,0.01037 0.07818,0.03487 0.103373,0.06881 0.01868,0.02516 0.03102,0.05632 0.0285,0.08755 -0.0013,0.01561 -0.0063,0.03102 -0.01511,0.04397 -0.0088,0.01294 -0.02146,0.02344 -0.03615,0.02885 -0.01378,0.0051 -0.02902,0.0056 -0.04351,0.0033 -0.0145,-0.0024 -0.02831,-0.0075 -0.04164,-0.0136 -0.02663,-0.01236 -0.05156,-0.02893 -0.07983,-0.03686 -0.01455,-0.0041 -0.02973,-0.006 -0.04461,-0.0087 -0.01479,-0.003 -0.02974,-0.0068 -0.04235,-0.01513 -0.01109,-0.0073 -0.02003,-0.01786 -0.02556,-0.02993 -0.0055,-0.01207 -0.0076,-0.02572 -0.0058,-0.03888 0.0016,-0.01318 0.0071,-0.02585 0.01553,-0.03611 0.0085,-0.01024 0.01979,-0.01791 0.03237,-0.02215 0.03872,-0.02889 0.08923,-0.04166 0.13702,-0.03466 0.006,7.93e-4 0.01191,0.0021 0.01778,0.0035 z m -2.810253,-0.742582 c 0.04953,0.01246 0.09653,0.0349 0.137091,0.06594 0.04621,0.03533 0.08352,0.08088 0.120772,0.125561 0.02037,0.02442 0.04095,0.04884 0.05827,0.07552 0.0173,0.02665 0.03136,0.05576 0.03755,0.08696 0.0062,0.0312 0.0042,0.06458 -0.0096,0.09328 -0.0069,0.01434 -0.01662,0.02734 -0.02872,0.03766 -0.01209,0.01032 -0.02652,0.01791 -0.04203,0.02143 -0.02159,0.0049 -0.04442,0.0019 -0.06555,-0.0047 -0.05935,-0.01871 -0.106402,-0.0638 -0.148127,-0.109961 -0.04172,-0.04617 -0.08159,-0.09578 -0.134766,-0.128098 -0.05048,-0.03069 -0.110796,-0.04437 -0.156961,-0.08123 -0.02307,-0.01842 -0.04231,-0.04307 -0.04929,-0.07177 -0.0035,-0.01434 -0.0038,-0.02948 -2.65e-4,-0.04382 0.0034,-0.01437 0.01095,-0.02786 0.0217,-0.03797 0.01632,-0.01537 0.03935,-0.02222 0.06176,-0.02217 0.03233,1.01e-4 0.06484,0.01442 0.08483,0.03984 0.01413,0.01794 0.02156,0.04019 0.02805,0.06208 0.0065,0.02191 0.01249,0.0443 0.02434,0.06381 0.0059,0.0098 0.01333,0.01868 0.02236,0.02567 0.009,0.007 0.01974,0.01188 0.03106,0.01333 0.01132,0.0013 0.02312,-5.29e-4 0.03283,-0.0067 0.0097,-0.006 0.01707,-0.01617 0.01897,-0.02742 0.0011,-0.0062 2.64e-4,-0.0127 -0.0016,-0.01881 -0.0019,-0.0061 -0.005,-0.0118 -0.0088,-0.01691 -0.0076,-0.01019 -0.01789,-0.01796 -0.02853,-0.02492 -0.01066,-0.0069 -0.02188,-0.01318 -0.03183,-0.02114 -0.0099,-0.008 -0.01881,-0.01791 -0.02312,-0.0299 -0.0055,-0.01527 -0.0028,-0.03309 0.007,-0.04604 0.0098,-0.01296 0.0263,-0.02058 0.04248,-0.01953 z m -0.452533,-0.0919 c 0.0039,0.0011 0.0078,0.0021 0.01164,0.0035 0.01529,0.0053 0.02959,0.01474 0.03843,0.02827 0.0074,0.01138 0.01058,0.02524 0.0096,0.03878 -0.0011,0.01357 -0.0062,0.02668 -0.01389,0.03785 -0.01548,0.0223 -0.04086,0.03619 -0.06706,0.04331 -0.02619,0.0071 -0.05348,0.0081 -0.0806,0.0096 -0.02711,0.0013 -0.05454,0.0033 -0.08027,0.01193 -0.03122,0.01048 -0.05848,0.03055 -0.08225,0.05336 -0.02376,0.02281 -0.04457,0.04851 -0.06663,0.07298 -0.02207,0.02447 -0.04574,0.04801 -0.07397,0.06499 -0.02821,0.01699 -0.06161,0.02711 -0.0943,0.0231 -0.02853,-0.0035 -0.05597,-0.01842 -0.07247,-0.04194 -0.01365,-0.01947 -0.01934,-0.04437 -0.01548,-0.06785 0.0039,-0.02344 0.01722,-0.0452 0.03642,-0.05929 0.01889,-0.0072 0.03666,-0.0176 0.05213,-0.03061 0.02744,-0.02307 0.04727,-0.05361 0.07173,-0.07981 0.04799,-0.05141 0.11317,-0.08497 0.181422,-0.101931 0.06826,-0.01696 0.139618,-0.01807 0.20964,-0.01156 0.01209,0.0011 0.02424,0.0024 0.03599,0.0053 z m 1.188514,0.468188 c 0.0069,0.0021 0.01363,0.0046 0.02024,0.0075 0.02643,0.01156 0.04996,0.02972 0.06743,0.05268 0.01746,0.02297 0.02884,0.05065 0.03205,0.07932 0.0032,0.02867 -0.0019,0.05829 -0.01447,0.08418 -0.01201,0.02442 -0.03094,0.04538 -0.05377,0.06019 -0.02281,0.01479 -0.04949,0.02347 -0.07664,0.02519 -0.05431,0.0034 -0.109091,-0.02193 -0.143595,-0.06399 -0.02064,-0.02519 -0.03439,-0.05606 -0.03929,-0.08824 -0.0049,-0.03219 -0.0011,-0.06556 0.01119,-0.09574 0.03239,-0.03955 0.08165,-0.06497 0.132665,-0.0683 0.02159,-0.0013 0.04348,0.0011 0.0642,0.0072 z m 1.315479,0.513919 c 0.0066,0.0016 0.01283,0.0038 0.01865,0.0073 0.0078,0.0046 0.01479,0.01095 0.01939,0.01873 0.0047,0.0078 0.007,0.01688 0.0062,0.0259 -7.94e-4,0.0078 -0.0037,0.01535 -0.0084,0.02159 -0.0046,0.0063 -0.01066,0.0114 -0.01744,0.01527 -0.01352,0.0077 -0.02947,0.01027 -0.04503,0.01061 -0.01556,2.65e-4 -0.03098,-0.0016 -0.04654,-0.0016 -0.01556,-1.48e-4 -0.03154,0.0013 -0.04573,0.0078 -0.01447,0.0065 -0.0263,0.01767 -0.04008,0.0255 -0.0069,0.0039 -0.01434,0.007 -0.0222,0.008 -0.0079,0.0011 -0.0163,-1.56e-4 -0.02302,-0.0044 -0.0042,-0.0026 -0.0076,-0.0063 -0.0104,-0.01042 -0.0028,-0.0041 -0.005,-0.0086 -0.0069,-0.01318 -0.0037,-0.0092 -0.0063,-0.01889 -0.01024,-0.02799 -0.004,-0.0091 -0.0092,-0.01749 -0.01495,-0.02556 -0.0029,-0.004 -0.006,-0.008 -0.0086,-0.0122 -0.0027,-0.0042 -0.005,-0.0087 -0.0062,-0.01349 -7.94e-4,-0.0038 -0.0011,-0.0079 -2.65e-4,-0.01172 0.0011,-0.0057 0.0035,-0.01093 0.0074,-0.01527 0.0037,-0.0044 0.0086,-0.0078 0.01389,-0.01008 0.01056,-0.0046 0.02265,-0.0047 0.03397,-0.0026 0.02262,0.0043 0.04294,0.01707 0.06564,0.02088 0.01783,0.003 0.03619,1.4e-4 0.05384,-0.0038 0.01765,-0.004 0.03506,-0.0092 0.05305,-0.01098 0.01125,-0.0011 0.02291,-7.93e-4 0.03388,0.0019 z m 0.818743,0.259138 c 0.0071,0.0016 0.01394,0.0044 0.02032,0.0078 0.01259,0.0072 0.02281,0.01897 0.02666,0.03297 0.0021,0.0082 0.0024,0.01691 0.0013,0.02537 -0.0013,0.0084 -0.0032,0.01675 -0.0052,0.02506 -0.0021,0.0083 -0.0037,0.01667 -0.0042,0.02516 -5.29e-4,0.0085 7.94e-4,0.01717 0.0043,0.02492 0.0034,0.0074 0.0089,0.01373 0.01519,0.01886 0.0063,0.0051 0.01347,0.0091 0.02072,0.01278 0.01447,0.0074 0.02986,0.01365 0.04118,0.02532 0.0095,0.0098 0.0154,0.02289 0.01699,0.03645 0.0016,0.01355 -0.0011,0.02746 -0.007,0.03974 -0.0058,0.0123 -0.01516,0.02299 -0.02611,0.03111 -0.01095,0.0081 -0.02358,0.01373 -0.0368,0.01707 -0.02647,0.0066 -0.05457,0.0036 -0.08074,-0.004 -0.02617,-0.0077 -0.05078,-0.0199 -0.07514,-0.0322 -0.05726,-0.02889 -0.114932,-0.05862 -0.177345,-0.07339 -0.0425,-0.01 -0.08621,-0.01297 -0.12958,-0.01789 -0.04337,-0.0049 -0.0871,-0.01206 -0.126934,-0.02992 -0.03985,-0.01783 -0.0758,-0.04761 -0.0934,-0.08756 -0.0088,-0.01998 -0.01289,-0.04219 -0.01045,-0.06388 0.0024,-0.02169 0.01156,-0.04263 0.02638,-0.05865 0.01974,-0.02127 0.04875,-0.03256 0.07771,-0.03442 0.02896,-0.0019 0.05786,0.005 0.0848,0.01577 0.05387,0.02156 0.100906,0.05838 0.15576,0.07734 0.05606,0.01937 0.11811,0.01892 0.175278,0.0031 0.02799,-0.0077 0.05552,-0.01924 0.08455,-0.01931 0.0072,6.6e-5 0.01455,7.94e-4 0.02162,0.0024 z" />
  </g>
</svg>
